<svg xmlns="http://www.w3.org/2000/svg" viewBox="0 0 420 120" role="img" aria-labelledby="t">
<title id="t">Axante</title>
<g fill="none" fill-rule="evenodd">
  <path fill="#EF0A72" d="M66 10h12v100H66z"/>
  <path fill="#FFFFFF" d="M17 77c0-18 13-29 36-29h13v-5c0-10-6-15-18-15-9 0-17 3-24 8l-7-13C26 17 37 14 50 14c22 0 34 10 34 30v50H67V83c-6 9-15 13-27 13-14 0-23-7-23-19zm49-13H54c-13 0-19 4-19 12 0 6 4 9 12 9 11 0 19-8 19-20v-1zM91 15h22l28 31 28-31h22l-39 44 41 45h-23l-29-32-29 32H89l41-45zM205 77c0-18 13-29 36-29h13v-5c0-10-6-15-18-15-9 0-17 3-24 8l-7-13c9-6 20-9 33-9 22 0 34 10 34 30v50h-17V83c-6 9-15 13-27 13-14 0-23-7-23-19zm49-13h-12c-13 0-19 4-19 12 0 6 4 9 12 9 11 0 19-8 19-20v-1zM287 15h17v12c6-9 16-14 29-14 20 0 31 12 31 33v48h-18V49c0-13-6-20-18-20-14 0-23 10-23 26v39h-18zM376 15h19V0h18v15h25v15h-25v39c0 8 4 12 12 12 5 0 9-1 13-4v16c-5 3-11 4-18 4-16 0-25-9-25-26V30h-19z"/>
</g></svg>