<svg xmlns="http://www.w3.org/2000/svg" viewBox="0 0 1200 800" role="img" aria-labelledby="title desc">
<title id="title">Carabetta</title><desc id="desc">Fashion e-commerce</desc>
<defs><linearGradient id="bg" x1="0" y1="0" x2="1" y2="1"><stop stop-color="#160916"/><stop offset="1" stop-color="#4A1139"/></linearGradient><linearGradient id="g2" x1="0" y1="0" x2="1" y2="1"><stop stop-color="#EF0A72"/><stop offset="1" stop-color="#4A1139"/></linearGradient></defs>
<rect width="1200" height="800" fill="url(#bg)"/>
<circle cx="1060" cy="40" r="280" fill="#EF0A72" opacity=".18"/><circle cx="80" cy="770" r="250" fill="#fff" opacity=".04"/>
<rect x="120" y="120" width="960" height="560" rx="34" fill="#0D0D14" stroke="rgba(255,255,255,.2)"/>
<circle cx="165" cy="160" r="8" fill="#EF0A72"/><circle cx="190" cy="160" r="8" fill="#3B3B47"/><circle cx="215" cy="160" r="8" fill="#3B3B47"/>
<rect x="160" y="220" width="420" height="40" rx="12" fill="#fff" opacity=".94"/>
<rect x="160" y="280" width="310" height="14" rx="7" fill="#fff" opacity=".35"/>
<rect x="160" y="310" width="250" height="14" rx="7" fill="#fff" opacity=".2"/>
<rect x="160" y="375" width="170" height="56" rx="16" fill="#EF0A72"/>
<rect x="650" y="220" width="340" height="360" rx="28" fill="url(#g2)" opacity=".95"/>
<circle cx="820" cy="400" r="92" fill="none" stroke="#fff" stroke-opacity=".22" stroke-width="24"/>
<text x="90" y="755" fill="#fff" font-family="Arial,sans-serif" font-size="34" font-weight="800">Carabetta</text>
</svg>