<svg xmlns="http://www.w3.org/2000/svg" viewBox="0 0 1200 800" role="img" aria-labelledby="title desc">
<title id="title">Tracciati d'Arte</title><desc id="desc">Rivista d'arte e cultura</desc>
<defs><linearGradient id="bg" x1="0" y1="0" x2="1" y2="1"><stop stop-color="#1b1209"/><stop offset="1" stop-color="#49301d"/></linearGradient><linearGradient id="art" x1="0" y1="0" x2="1" y2="1"><stop stop-color="#ffc15b"/><stop offset="1" stop-color="#f20a73"/></linearGradient></defs>
<rect width="1200" height="800" fill="url(#bg)"/><circle cx="1040" cy="70" r="270" fill="#ffc15b" opacity=".12"/>
<rect x="105" y="85" width="990" height="630" rx="36" fill="#0e0e13" stroke="#fff" stroke-opacity=".14"/>
<rect x="150" y="135" width="900" height="80" rx="18" fill="#fff" opacity=".06"/><rect x="180" y="162" width="240" height="26" rx="13" fill="#fff" opacity=".92"/>
<rect x="150" y="250" width="560" height="410" rx="26" fill="url(#art)"/><circle cx="430" cy="455" r="128" fill="#fff" opacity=".12"/><path d="M342 520c70-130 130-130 215-25" fill="none" stroke="#fff" stroke-opacity=".65" stroke-width="18" stroke-linecap="round"/>
<rect x="750" y="250" width="300" height="92" rx="20" fill="#fff" opacity=".1"/><rect x="750" y="370" width="300" height="92" rx="20" fill="#fff" opacity=".07"/><rect x="750" y="490" width="300" height="170" rx="20" fill="#fff" opacity=".09"/>
<text x="90" y="765" fill="#fff" font-family="Arial,sans-serif" font-size="34" font-weight="800">Tracciati d'Arte</text>
</svg>
